<?xml version="1.0" encoding="UTF-8"?>
<svg xmlns="http://www.w3.org/2000/svg" version="1.1" xmlns:xlink="http://www.w3.org/1999/xlink" viewBox="0 0 3840 3840">
  <!-- Generator: Adobe Illustrator 29.1.0, SVG Export Plug-In . SVG Version: 2.1.0 Build 142)  -->
  <defs>
    <style>
      .st0 {
        fill: url(#linear-gradient2);
      }

      .st1 {
        fill: url(#linear-gradient33);
      }

      .st2 {
        fill: url(#linear-gradient10);
      }

      .st3 {
        fill: url(#linear-gradient32);
      }

      .st4 {
        fill: url(#linear-gradient21);
      }

      .st5 {
        fill: url(#linear-gradient1);
      }

      .st6 {
        fill: url(#linear-gradient9);
      }

      .st7 {
        fill: url(#linear-gradient18);
      }

      .st8 {
        fill: url(#linear-gradient23);
      }

      .st9 {
        fill: url(#linear-gradient8);
      }

      .st10 {
        fill: url(#linear-gradient11);
      }

      .st11 {
        fill: url(#radial-gradient);
      }

      .st12 {
        fill: url(#linear-gradient16);
      }

      .st13 {
        fill: url(#linear-gradient24);
      }

      .st14 {
        fill: url(#linear-gradient30);
      }

      .st15 {
        fill: url(#radial-gradient1);
      }

      .st16 {
        fill: url(#linear-gradient22);
      }

      .st17 {
        fill: url(#linear-gradient29);
      }

      .st18 {
        fill: url(#linear-gradient19);
      }

      .st19 {
        fill: url(#linear-gradient12);
      }

      .st20 {
        fill: url(#linear-gradient28);
      }

      .st21 {
        fill: url(#linear-gradient7);
      }

      .st22 {
        fill: url(#linear-gradient20);
      }

      .st23 {
        fill: url(#linear-gradient4);
      }

      .st24 {
        fill: url(#linear-gradient31);
      }

      .st25 {
        fill: url(#linear-gradient26);
      }

      .st25, .st26 {
        opacity: .64;
      }

      .st27 {
        fill: #663b3b;
      }

      .st28 {
        opacity: .37;
      }

      .st28, .st29 {
        display: none;
      }

      .st30 {
        fill: url(#linear-gradient14);
      }

      .st31 {
        fill: url(#linear-gradient5);
      }

      .st32 {
        fill: url(#linear-gradient3);
      }

      .st33 {
        fill: url(#linear-gradient15);
      }

      .st34 {
        fill: url(#linear-gradient17);
      }

      .st35 {
        fill: url(#radial-gradient2);
      }

      .st36 {
        fill: url(#linear-gradient27);
        opacity: .68;
      }

      .st37 {
        fill: url(#linear-gradient6);
      }

      .st38 {
        fill: url(#radial-gradient3);
      }

      .st26 {
        fill: url(#linear-gradient25);
      }

      .st39 {
        fill: url(#linear-gradient13);
      }

      .st40 {
        fill: url(#linear-gradient);
      }
    </style>
    <linearGradient id="linear-gradient" x1="633.47" y1="2274.55" x2="1130.48" y2="497.07" gradientUnits="userSpaceOnUse">
      <stop offset=".13" stop-color="#fff"/>
      <stop offset=".45" stop-color="#5cc575" stop-opacity="0"/>
    </linearGradient>
    <linearGradient id="linear-gradient1" x1="1364.69" y1="1923.76" x2="1773.6" y2="852.94" gradientUnits="userSpaceOnUse">
      <stop offset=".13" stop-color="#deffbf"/>
      <stop offset=".45" stop-color="#5cc575" stop-opacity="0"/>
    </linearGradient>
    <linearGradient id="linear-gradient2" x1="1821.32" y1="2123.22" x2="2263.68" y2="666.41" xlink:href="#linear-gradient1"/>
    <linearGradient id="linear-gradient3" x1="2394.07" y1="2008.97" x2="2639.33" y2="556.88" xlink:href="#linear-gradient1"/>
    <linearGradient id="linear-gradient4" x1="1110.13" y1="1402.23" x2="1393.07" y2="1781.32" xlink:href="#linear-gradient1"/>
    <linearGradient id="linear-gradient5" x1="1407.55" y1="1447.68" x2="1808.65" y2="1985.09" xlink:href="#linear-gradient1"/>
    <linearGradient id="linear-gradient6" x1="1886.83" y1="1460.87" x2="2316.77" y2="2036.93" xlink:href="#linear-gradient1"/>
    <linearGradient id="linear-gradient7" x1="2375.4" y1="1438.28" x2="2715.51" y2="1893.96" xlink:href="#linear-gradient1"/>
    <radialGradient id="radial-gradient" cx="3587.48" cy="2208.92" fx="3587.48" fy="2208.92" r="113.22" gradientUnits="userSpaceOnUse">
      <stop offset=".11" stop-color="#ff8e00"/>
      <stop offset=".54" stop-color="#d47000"/>
    </radialGradient>
    <radialGradient id="radial-gradient1" cx="3684.85" cy="2208.92" fx="3684.85" fy="2208.92" r="126.91" xlink:href="#radial-gradient"/>
    <linearGradient id="linear-gradient8" x1="539.8" y1="2178.04" x2="535.84" y2="1491.14" gradientUnits="userSpaceOnUse">
      <stop offset=".29" stop-color="#caf688"/>
      <stop offset=".37" stop-color="#9af94d"/>
      <stop offset=".58" stop-color="#139427"/>
      <stop offset=".72" stop-color="#94ef91"/>
    </linearGradient>
    <radialGradient id="radial-gradient2" cx="537.78" cy="1951.62" fx="537.78" fy="1951.62" r="332.66" gradientUnits="userSpaceOnUse">
      <stop offset=".18" stop-color="#034411"/>
      <stop offset=".6" stop-color="#033907"/>
    </radialGradient>
    <linearGradient id="linear-gradient9" x1="258.61" y1="1868.13" x2="2945.25" y2="1868.13" gradientUnits="userSpaceOnUse">
      <stop offset=".18" stop-color="#034411"/>
      <stop offset=".6" stop-color="#000"/>
    </linearGradient>
    <linearGradient id="linear-gradient10" x1="603.18" y1="2634.76" x2="1139.72" y2="715.91" gradientUnits="userSpaceOnUse">
      <stop offset=".28" stop-color="#e1ff55"/>
      <stop offset=".38" stop-color="#9af94d"/>
      <stop offset=".63" stop-color="#139427"/>
    </linearGradient>
    <linearGradient id="linear-gradient11" x1="1392.56" y1="2256.07" x2="1833.99" y2="1100.09" gradientUnits="userSpaceOnUse">
      <stop offset=".27" stop-color="#d4ff6a"/>
      <stop offset=".56" stop-color="#139427"/>
      <stop offset=".74" stop-color="#61ff15"/>
    </linearGradient>
    <linearGradient id="linear-gradient12" x1="1885.51" y1="2471.4" x2="2363.06" y2="898.72" gradientUnits="userSpaceOnUse">
      <stop offset=".21" stop-color="#e1ff55"/>
      <stop offset=".33" stop-color="#9af94d"/>
      <stop offset=".54" stop-color="#139427"/>
      <stop offset=".69" stop-color="#df5"/>
    </linearGradient>
    <linearGradient id="linear-gradient13" x1="2503.82" y1="2348.06" x2="2768.59" y2="780.48" gradientUnits="userSpaceOnUse">
      <stop offset=".2" stop-color="#caff55"/>
      <stop offset=".24" stop-color="#9af94d"/>
      <stop offset=".42" stop-color="#139427"/>
      <stop offset=".69" stop-color="#94ef91"/>
    </linearGradient>
    <linearGradient id="linear-gradient14" x1="538.6" x2="534.64" xlink:href="#linear-gradient8"/>
    <linearGradient id="linear-gradient15" x1="1446.26" y1="1540.06" x2="1840.77" y2="2169.37" gradientUnits="userSpaceOnUse">
      <stop offset=".13" stop-color="#eaffd4"/>
      <stop offset=".4" stop-color="#9af94d" stop-opacity="0"/>
    </linearGradient>
    <linearGradient id="linear-gradient16" x1="1304.39" y1="1775.69" x2="1551.34" y2="2169.62" gradientUnits="userSpaceOnUse">
      <stop offset=".19" stop-color="#eaffd4"/>
      <stop offset=".4" stop-color="#9af94d" stop-opacity="0"/>
    </linearGradient>
    <linearGradient id="linear-gradient17" x1="1881.45" y1="1649.25" x2="2068.04" y2="1946.91" xlink:href="#linear-gradient16"/>
    <linearGradient id="linear-gradient18" x1="1787.43" y1="2035.06" x2="1892.34" y2="2202.42" gradientUnits="userSpaceOnUse">
      <stop offset=".3" stop-color="#eaffd4"/>
      <stop offset=".62" stop-color="#9af94d" stop-opacity="0"/>
    </linearGradient>
    <linearGradient id="linear-gradient19" x1="2463.73" y1="1599.21" x2="2702.89" y2="1980.71" xlink:href="#linear-gradient16"/>
    <linearGradient id="linear-gradient20" x1="2356.63" y1="1787.84" x2="2575.55" y2="2137.06" xlink:href="#linear-gradient16"/>
    <linearGradient id="linear-gradient21" x1="488.48" y1="1653.61" x2="580.31" y2="1800.1" gradientTransform="translate(38.45 -5.85) scale(.95 1.01)" xlink:href="#linear-gradient16"/>
    <linearGradient id="linear-gradient22" x1="725.93" y1="1618.36" x2="817.76" y2="1764.85" gradientTransform="translate(2043.67 1143.99) rotate(90) scale(.85 .96)" xlink:href="#linear-gradient16"/>
    <linearGradient id="linear-gradient23" x1="312.36" y1="1590.73" x2="404.19" y2="1737.22" gradientTransform="translate(-172.76 756.55) rotate(-25.76) scale(.81 .78)" xlink:href="#linear-gradient16"/>
    <linearGradient id="linear-gradient24" x1="1195.79" y1="1534.81" x2="1311.57" y2="1719.5" gradientUnits="userSpaceOnUse">
      <stop offset=".26" stop-color="#eaffd4"/>
      <stop offset=".52" stop-color="#9af94d" stop-opacity="0"/>
    </linearGradient>
    <linearGradient id="linear-gradient25" x1="2193.65" y1="1653.46" x2="2387.62" y2="1962.89" xlink:href="#linear-gradient16"/>
    <linearGradient id="linear-gradient26" x1="2176.15" y1="2138.15" x2="2061.71" y2="2004.64" gradientUnits="userSpaceOnUse">
      <stop offset=".07" stop-color="#eaffd4"/>
      <stop offset=".36" stop-color="#9af94d" stop-opacity="0"/>
    </linearGradient>
    <linearGradient id="linear-gradient27" x1="1827.46" y1="1973.34" x2="2045.15" y2="1901.3" gradientUnits="userSpaceOnUse">
      <stop offset=".04" stop-color="#eaffd4"/>
      <stop offset=".18" stop-color="#9af94d" stop-opacity="0"/>
    </linearGradient>
    <radialGradient id="radial-gradient3" cx="698.98" cy="1656.82" fx="698.98" fy="1656.82" r="283.87" xlink:href="#radial-gradient2"/>
    <linearGradient id="linear-gradient28" x1="-450.77" y1="519.54" x2="-447.25" y2="523.06" gradientUnits="userSpaceOnUse">
      <stop offset=".18" stop-color="#caf688"/>
      <stop offset=".32" stop-color="#9af94d"/>
      <stop offset=".45" stop-color="#94ef91"/>
    </linearGradient>
    <linearGradient id="linear-gradient29" x1="699.18" y1="1881.51" x2="695.51" y2="1245.22" xlink:href="#linear-gradient8"/>
    <linearGradient id="linear-gradient30" x1="1334.64" y1="2112.64" x2="1029.65" y2="980.96" gradientUnits="userSpaceOnUse">
      <stop offset=".23" stop-color="#caf688"/>
      <stop offset=".36" stop-color="#9af94d"/>
      <stop offset=".5" stop-color="#139427"/>
      <stop offset=".64" stop-color="#94ef91"/>
    </linearGradient>
    <linearGradient id="linear-gradient31" x1="1686.67" y1="2029.24" x2="1509.85" y2="896.72" gradientUnits="userSpaceOnUse">
      <stop offset=".29" stop-color="#9af94d"/>
      <stop offset=".4" stop-color="#139427"/>
      <stop offset=".52" stop-color="#94ef91"/>
    </linearGradient>
    <linearGradient id="linear-gradient32" x1="2220.19" y1="2236.6" x2="1907.5" y2="746.55" gradientUnits="userSpaceOnUse">
      <stop offset=".23" stop-color="#caf688"/>
      <stop offset=".31" stop-color="#9af94d"/>
      <stop offset=".48" stop-color="#139427"/>
      <stop offset=".53" stop-color="#94ef91"/>
    </linearGradient>
    <linearGradient id="linear-gradient33" x1="3031.22" y1="2125.6" x2="2095.37" y2="988.55" gradientUnits="userSpaceOnUse">
      <stop offset=".23" stop-color="#caf688"/>
      <stop offset=".36" stop-color="#9af94d"/>
      <stop offset=".5" stop-color="#139427"/>
      <stop offset=".57" stop-color="#94ef91"/>
    </linearGradient>
  </defs>
  <g id="Layer_4" class="st28">
    <path class="st40" d="M1364.69,1280.86s-78.97,239.68-148.24,347.75c-69.27,108.06-184.26,107.18-184.26,107.18h-281.14c-35.19,61.98-102.28,103.86-179.28,103.86-113.49,0-205.49-90.97-205.49-203.19,0-76.01,42.2-142.27,104.7-177.11,14.61-8.15,33.09-2.37,40.73,12.51l1.09,2.13c6.89,13.43,2.67,29.96-9.92,38.29-36.86,24.4-61.31,67.23-61.31,115.98,0,75.9,59.26,137.44,132.36,137.44s132.36-61.54,132.36-137.44c0-48.9-24.59-91.83-61.63-116.2-12.34-8.11-17.12-23.87-11.01-37.32l.07-.16c7.27-16.01,26.8-22.28,42-13.44,58.62,34.06,98.63,96.04,101.38,167.47,17.34,0,118.26-.13,192.74-1.39,11.04-.19,21.37-2.19,30.98-5.52,61.58-21.33,93.71-97,93.71-97l87.28-243.84h182.88Z"/>
    <path class="st5" d="M1670.33,1400.33c-120.28-2.5-328.27,0-328.27,0,0,0-13.79,20.05-21.31,46.36-7.51,26.31-2.5,33.83-2.5,33.83l287.47,1.15c14.06.05,24.62,12.84,22.01,26.66l-212.33,9.35c-39.46,1.74-81.73,5.97-118.43,20.58-30.93,12.31-63.38,44.94-73.84,67.69-23.44,50.97-13.89,116.39,95.12,121.4,78.25,3.6,242.36,2.03,328.75.86,33.96-.46,55.91-.86,55.91-.86l15.6-51.36,57.07-187.95s15.03-85.2-105.25-87.71ZM1577.16,1627.81c0,7.69-6.23,13.93-13.92,13.93h-160.57c-7.69,0-13.93-6.24-13.93-13.93v-11.62c0-7.52,5.98-13.69,13.5-13.92l160.56-4.99c7.86-.25,14.36,6.06,14.36,13.92v16.61Z"/>
    <path class="st0" d="M2266.77,1399.22s-58.07,217.68-98.98,330.36c-2.93,8.07-6.24,15.54-9.86,22.46-29.9,57.17-80.92,76.64-114.01,83.24-18.84,3.76-31.87,3.35-31.87,3.35h-333.92l21.4-65.13c4.57-13.89,17.49-23.32,32.11-23.41.33,0,.66,0,.99-.01,49.34-.33,156.83-.87,198.91.13,55.43,1.32,72.59-20.63,72.59-20.63,0,0-73.91-.49-180.82-12.37-106.9-11.88-76.55-97.7-76.55-97.7l84.47-220.29h141.22s-55.43,147.73-65.99,189.97c-10.56,42.23,1.75,39.59,1.75,39.59,0,0,85.36,5.28,113.08,3.96,27.71-1.32,29.03-13.81,29.03-13.81l79.19-219.71h137.26Z"/>
    <path class="st32" d="M2645.2,1400.33c-120.28-2.5-328.27,0-328.27,0,0,0-13.79,20.05-21.31,46.36-7.51,26.31-2.5,33.83-2.5,33.83l287.47,1.15c14.06.05,24.62,12.84,22.01,26.66l-212.33,9.35c-39.46,1.74-81.73,5.97-118.43,20.58-30.93,12.31-63.38,44.94-73.84,67.69-23.44,50.97-13.89,116.39,95.12,121.4,50.23,2.31,135.83,2.49,213.54,2.02,90.96-.56,171.12-2.02,171.12-2.02l48.83-160.81,23.84-78.5s15.03-85.2-105.25-87.71ZM2377.54,1641.74c-7.69,0-13.93-6.24-13.93-13.93v-11.62c0-7.52,5.98-13.69,13.5-13.92l160.56-4.99c7.86-.25,14.36,6.06,14.36,13.92v16.61c0,7.69-6.23,13.93-13.92,13.93h-160.57Z"/>
    <path class="st23" d="M1364.69,1280.86s-78.97,239.68-148.24,347.75c-69.27,108.06-184.26,107.18-184.26,107.18h-18.25l-13.12-114.09c61.58-21.33,93.71-97,93.71-97l87.28-243.84h182.88Z"/>
    <path class="st31" d="M1670.33,1400.33c-120.28-2.5-328.27,0-328.27,0,0,0-13.79,20.05-21.31,46.36-7.51,26.31-2.5,33.83-2.5,33.83l287.47,1.15c14.06.05,24.62,12.84,22.01,26.66l-212.33,9.35c-39.46,1.74-81.73,5.97-118.43,20.58-30.93,12.31-63.38,44.94-73.84,67.69-23.44,50.97-13.89,116.39,95.12,121.4,78.25,3.6,242.36,2.03,328.75.86l71.51-52.22,57.07-187.95s15.03-85.2-105.25-87.71ZM1577.16,1627.81c0,7.69-6.23,13.93-13.92,13.93h-160.57c-7.69,0-13.93-6.24-13.93-13.93v-11.62c0-7.52,5.98-13.69,13.5-13.92l160.56-4.99c7.86-.25,14.36,6.06,14.36,13.92v16.61Z"/>
    <path class="st37" d="M2266.77,1399.22s-58.07,217.68-98.98,330.36c-2.93,8.07-6.24,15.54-9.86,22.46l-114.01,83.24c-18.84,3.76-31.87,3.35-31.87,3.35h-269.23l-10.19-88.55c49.34-.33,156.83-.87,198.91.13,55.43,1.32,72.59-20.63,72.59-20.63,0,0-73.91-.49-180.82-12.37-106.9-11.88-76.55-97.7-76.55-97.7l84.47-220.29h141.22s-55.43,147.73-65.99,189.97c-10.56,42.23,1.75,39.59,1.75,39.59,0,0,85.36,5.28,113.08,3.96,27.71-1.32,29.03-13.81,29.03-13.81l79.19-219.71h137.26Z"/>
    <path class="st21" d="M2645.2,1400.33c-120.28-2.5-328.27,0-328.27,0,0,0-13.79,20.05-21.31,46.36-7.51,26.31-2.5,33.83-2.5,33.83l287.47,1.15c14.06.05,24.62,12.84,22.01,26.66l-212.33,9.35c-39.46,1.74-81.73,5.97-118.43,20.58-30.93,12.31-63.38,44.94-73.84,67.69-23.44,50.97-13.89,116.39,95.12,121.4,50.23,2.31,135.83,2.49,213.54,2.02l219.95-162.83,23.84-78.5s15.03-85.2-105.25-87.71ZM2552.03,1627.81c0,7.69-6.23,13.93-13.92,13.93h-160.57c-7.69,0-13.93-6.24-13.93-13.93v-11.62c0-7.52,5.98-13.69,13.5-13.92l160.56-4.99c7.86-.25,14.36,6.06,14.36,13.92v16.61Z"/>
  </g>
  <g id="Layer_5">
    <g>
      <g>
        <g>
          <polygon points="2457.51 2079.55 2383.89 2277.77 2422.37 2277.77 2495.99 2079.55 2457.51 2079.55"/>
          <path d="M3142.74,2165.24c-.47-.84-.97-1.67-1.51-2.47-5.24-8.16-13.01-14.55-23.3-19.16-11.29-5.08-25.04-7.62-41.25-7.62-1.3,0-2.58.02-3.85.05-17.39.46-33.39,4.05-48.02,10.77-5.7,2.63-11.05,5.6-16.03,8.94-11.28-16.19-28.16-20.8-40.12-21.86,0,0-25.69-3.54-52.35,11.25-12.25,6.79-24.72,17.44-35,34.08,0,.03-.02.06-.05.09-3.12,5.07-4.97,8.83-5.76,11.49-1.6,3.62-2.75,6.65-3.46,8.65-.12.35-.24.66-.33.95l-.58,1.74s-.01.03-.01.03l-13.8,41.31-4.03,12.06-7.51,22.45h38.96l24.18-73.89c4.57-13.86,11.32-24.18,20.22-30.95,1.47-1.12,3-2.15,4.58-3.09,8.37-4.98,18.9-5.95,27.73-1.73,10.18,4.87,14.02,14.05,15.35,21.81-4.87,8.99-8.04,18.72-9.52,29.19-1.79,12.65-.06,23.65,5.18,32.99.28.51.58,1.01.9,1.5,5.26,8.64,13.22,15.44,23.87,20.41,11.26,5.26,24.9,7.88,40.91,7.88,19.09,0,36.48-3.65,52.19-10.96,15.71-7.3,28.67-17.27,38.87-29.91,10.2-12.65,16.44-26.89,18.68-42.75,1.81-12.82.09-23.9-5.15-33.26ZM3108.86,2200.11c-1.48,10.51-5.26,19.77-11.31,27.78-6.07,8.02-13.62,14.29-22.68,18.84-9.06,4.54-19.12,6.81-30.21,6.81-13.75,0-23.98-3.16-30.68-9.49-6.69-6.32-9.25-15.09-7.66-26.31.9-6.36,2.63-12.26,5.22-17.71,1.67-3.56,3.7-6.91,6.09-10.08.73-.96,1.47-1.9,2.25-2.81,5.67-6.69,12.53-12.02,20.59-16.02,9.16-4.54,19.18-6.81,30.06-6.81,13.75,0,23.97,3.2,30.66,9.61,6.68,6.41,9.25,15.14,7.68,26.18Z"/>
          <path d="M3317.19,2163.04c-2.63-9.7-8.52-17.05-17.66-22.04-5.04-2.75-10.85-4.73-17.43-5.96-.04-.01-.08-.02-.12-.03-2.71-.64-5.69-1.15-8.98-1.48-23.24-2.38-46.19,3.48-65.16,11.2-.27.11-.54.22-.81.33-27.19,11.21-47.73,31.79-56.94,56.66l-28.17,76.07h38.49l27.71-74c5.24-13.89,12.97-24.22,23.17-30.99,10.19-6.77,22.38-10.15,36.54-10.15s22.42,3.25,26.64,9.75c4.21,6.5,4.16,15.54-.15,27.11l-28.93,78.27h38.48l29.35-79.08c5.28-14.06,6.6-25.95,3.97-35.66Z"/>
          <path d="M3374.05,2114.45c6.97,0,12.81-1.78,17.51-5.35,4.7-3.57,7.46-8.22,8.28-13.96.61-4.34-.74-8.03-4.07-11.05-3.33-3.02-8.03-4.54-14.1-4.54-6.79,0-12.5,1.78-17.11,5.35-4.62,3.57-7.3,7.99-8.04,13.26-.64,4.5.65,8.34,3.87,11.52,3.21,3.18,7.77,4.77,13.67,4.77Z"/>
          <polygon points="3558.81 2135.12 3506.47 2135.12 3407.27 2197.86 3451.21 2079.55 3412.72 2079.55 3339.1 2277.77 3377.59 2277.77 3391.63 2239.99 3429.54 2216.17 3464.73 2277.77 3509.37 2277.77 3462.89 2196.2 3558.81 2135.12"/>
          <path d="M2384.4,2269.08c.2-.35.39-.71.55-1.06.06-.13.12-.26.18-.39.15-.33.28-.67.4-1,.48-1.32.78-2.71.88-4.16.02-.29.04-.57.05-.83,0-.07.01-.14.01-.21v-2.63c0-2.5-2.22-4.54-4.93-4.54h-46.19v-.09c-9.64-.37-17.19-1.83-23.08-3.98-.22-.12-.45-.25-.67-.39-23.17-9.37-15.93-29.18-15.93-29.18l88.51-.22h2.39c4.23,0,7.65-3.16,7.65-7.04v-14.23c0-3.89-3.42-7.04-7.65-7.04h-87.14c.94-2,1.98-3.94,3.12-5.81,5.02-8.28,11.51-14.69,19.45-19.23,3.23-1.85,6.72-3.26,10.33-4.2,3.62-.95,7.39-1.44,11.19-1.44h63.6c.31,0,.61-.01.92-.02h.01c9.52-.45,17.1-7.71,17.1-16.6v-5.59c0-2.47-2.17-4.48-4.85-4.48h-80.01c-1.51,0-3,.14-4.48.42-9.33,1.7-18.18,4.77-26.53,9.21-13.53,7.22-24.72,17.05-33.55,29.52-8.84,12.47-14.27,26.81-16.3,43.01-1.58,12.65-.01,23.65,4.72,32.99,3.85,7.64,9.51,13.9,16.93,18.81,1.66,1.09,3.43,2.14,5.28,3.1.06.03.09.05.15.08,7.08,3.67,14.94,5.59,22.92,5.89,1.92.26,3.85.38,5.79.38h48.38c.21,0,.41-.02.62-.03,1.52-.04,2.94-.14,4.26-.3h.24c6.23,0,11.7-2.97,14.86-7.44.25-.35.49-.7.7-1.06.04-.06.07-.13.11-.19Z"/>
          <path d="M2580.04,2268.16c.48-1.32.78-2.71.88-4.16.02-.29.04-.57.05-.83,0-.07.01-.14.01-.21v-2.63c0-2.5-2.22-4.54-4.93-4.54h-46.19v-.09c-9.64-.37-17.19-1.83-23.08-3.98-.22-.12-.45-.25-.67-.39-23.17-9.37-15.93-29.18-15.93-29.18l88.51-.22h2.39c4.23,0,7.65-3.16,7.65-7.04v-14.23c0-3.89-3.42-7.04-7.65-7.04h-87.14c.94-2,1.98-3.94,3.12-5.81,5.02-8.28,11.51-14.69,19.45-19.23,3.23-1.85,6.72-3.26,10.33-4.2,3.62-.95,7.39-1.44,11.19-1.44h63.6c.31,0,.61-.01.92-.02h.01c9.52-.45,17.1-7.71,17.1-16.6v-5.59c0-2.47-2.17-4.48-4.85-4.48h-80.01c-1.51,0-3,.14-4.48.42-9.33,1.7-18.18,4.77-26.52,9.21-13.53,7.22-24.72,17.05-33.55,29.52-8.84,12.47-14.27,26.81-16.3,43.01-1.58,12.65-.01,23.65,4.73,32.99,3.85,7.64,9.51,13.9,16.93,18.81,1.66,1.09,3.43,2.14,5.28,3.1.06.03.09.05.15.08,7.08,3.67,14.94,5.59,22.92,5.89,1.92.26,3.85.38,5.79.38h48.38c.21,0,.41-.02.62-.03,1.52-.04,2.94-.14,4.26-.3h.24c6.23,0,11.7-2.97,14.86-7.44.25-.35.49-.7.7-1.06.04-.06.07-.13.11-.19.2-.35.39-.71.55-1.06.06-.13.13-.26.18-.39.15-.33.28-.67.4-1Z"/>
          <path d="M2843.9,2255.98c-6.08.3-13.66-.44-18.91-1.11h-.01c-3.51-.44-5.99-.85-6.3-.9-.02-.01-.04-.01-.04-.01h-.01c-22.66-4.63-15.06-20.93-14.64-21.8,0-.03.01-.04.01-.04.18-.7.4-1.42.64-2.16l25.42-68.12h44.26l7.36-19.77,2.58-6.94h-44.25l11.76-31.53h-38.48l-11.75,31.53h-54.6l-99.19,62.73,43.94-118.3h-38.49l-73.62,198.22h38.49l14.03-37.79,37.92-23.82,35.19,61.61h44.65l-46.49-81.58,63.95-40.72-2.29,6.36h26.57l-25.48,68.39c-3.7,10.15-4.37,18.92-2.04,26.32,2.34,7.39,7.08,13.09,14.21,17.09.04.02.07.04.09.05,5.04,2.82,10.97,4.18,16.96,4.19l47.32.1,7.01-22.28c-1.44.07-3.31.16-5.77.28Z"/>
          <polygon points="3387.93 2124.98 3349.45 2124.98 3345.69 2135.12 3345.48 2135.12 3292.65 2277.77 3331.14 2277.77 3334.9 2267.63 3335.11 2267.63 3387.93 2124.98"/>
        </g>
        <polygon class="st11" points="3641.7 2205.55 3533.27 2273.86 3573.75 2143.98 3641.7 2205.55"/>
        <polygon class="st15" points="3663.71 2145.36 3622.32 2272.48 3747.39 2208.92 3663.71 2145.36"/>
      </g>
      <path class="st9" d="M577.88,1704.54v245.11c0,22.15-17.95,40.1-40.1,40.1s-40.09-17.95-40.09-40.1v-245.11c0-22.14,17.95-40.09,40.09-40.09,11.08,0,21.1,4.49,28.36,11.75,7.25,7.25,11.75,17.27,11.75,28.35Z"/>
      <circle class="st35" cx="537.78" cy="1951.62" r="332.66"/>
      <path class="st27" d="M2175.87,1820.61"/>
      <path class="st6" d="M2943.83,1799.93l-.59,3.33-91.3,300.65-40.82.73c-12.23.23-300.75,5.4-418.86-.04-33.35-1.53-62.3-7.71-86.42-18.41-25.14,57.11-68.59,98.94-126.55,121.52-40.45,15.76-75.89,17.09-86.69,17.09-.67,0-1.25-.01-1.73-.01h-437.47l39.14-119.13c-95.14,1.27-267.86,2.84-352.71-1.07-60.07-2.76-105.18-20.25-134.28-52.03-16.7,12.58-34.7,23.42-53.81,32.38,0,0-.04.02-.14.05-.05.02-.1.04-.15.06-3.75,1.55-43.16,17.63-72.85,23.71-.17.04-.36.08-.53.11-1.86.37-3.67.69-5.44.99-.03.01-.08.01-.11.02-.02,0-.03.01-.05.01-20.82,3.62-35.24,3.86-38.8,3.86h-273.28c-52.01,69.89-135.01,112.12-223.82,112.12-74.13,0-143.86-28.58-196.33-80.46-52.64-52.06-81.63-121.32-81.63-195.03,0-99.4,54.34-191.46,141.83-240.23,20.65-11.52,45.52-14.19,68.22-7.32,22.81,6.9,42.14,23.02,53.03,44.22l1.21,2.37c20.53,40.01,7.77,88.92-29.71,113.72-25.68,17-41.02,46.31-41.02,78.38,0,50.87,38.92,92.24,86.75,92.24s86.75-41.37,86.75-92.24c0-32.18-15.42-61.54-41.25-78.55-17.49-11.49-30.41-28.85-36.37-48.87-6-20.18-4.58-41.84,4.01-61.04l.29-.66c10.3-22.67,29.82-40.02,53.54-47.59,23.71-7.57,49.64-4.74,71.13,7.76,39.51,22.95,73.03,55.59,96.91,94.34,15.04,24.4,26.1,51.03,32.85,78.73,43.63-.14,106.9-.51,158.59-1.38,40.62-.69,73.93-54.65,83.39-75.42l106.85-298.49h314.55l-24.29,73.7c-.82,2.5-7.7,23.31-18.84,54.7,76.13-.6,208.54-1.25,296.63.57,50.22,1.06,90.24,13.36,119.43,36.65l14.52-37.86h272.06l-28.47,75.86c-13.59,36.24-46.57,125.91-62.27,175.02,18.52.81,36.42,1.4,48.88,1.45l90.94-252.33h260.7l-.27,1c34.2-.35,109.1-.99,186.71-.99,52.8,0,106.85.3,150.18,1.2,62.89,1.32,109.81,20.28,139.45,56.37,37.33,45.45,29.32,98.31,28.28,104.2Z"/>
      <path class="st2" d="M1195.14,1562.04l-94.22,263.23s-46.36,109.18-134.61,110.68c-80.41,1.36-189.36,1.48-208.07,1.49-2.96-77.11-46.16-144.02-109.45-180.78-16.41-9.54-37.49-2.77-45.34,14.51l-.08.17c-6.6,14.52-1.44,31.53,11.89,40.29,39.99,26.31,66.53,72.65,66.53,125.44,0,81.94-63.97,148.37-142.89,148.37s-142.89-66.43-142.89-148.37c0-52.63,26.39-98.86,66.19-125.2,13.59-8.99,18.15-26.84,10.71-41.34l-1.18-2.3c-8.25-16.06-28.2-22.3-43.97-13.5-67.47,37.61-113.03,109.14-113.03,191.2,0,121.15,99.32,219.35,221.83,219.35,83.12,0,155.56-45.22,193.55-112.12h303.49s124.14.95,198.92-115.71c74.78-116.66,160.03-375.4,160.03-375.4h-197.42Z"/>
      <path class="st10" d="M1722.51,1691.01c-129.85-2.7-354.38,0-354.38,0,0,0-14.89,21.64-23,50.05-8.11,28.4-2.7,36.52-2.7,36.52l310.33,1.24c15.18.05,26.58,13.86,23.76,28.78l-229.22,10.09c-42.6,1.88-88.23,6.44-127.85,22.22-33.39,13.29-68.42,48.51-79.71,73.07-25.3,55.02-14.99,125.65,102.69,131.06,117.68,5.42,415.25,0,415.25,0l78.45-258.34s16.23-91.98-113.62-94.69ZM1621.93,1936.59c0,8.3-6.73,15.04-15.03,15.04h-173.34c-8.3,0-15.04-6.74-15.04-15.04v-12.54c0-8.12,6.46-14.78,14.57-15.03l173.33-5.39c8.48-.27,15.5,6.54,15.5,15.03v17.93Z"/>
      <path class="st19" d="M1896.21,1689.81l-91.19,237.81s-32.77,92.65,82.64,105.48,195.2,13.35,195.2,13.35c0,0-18.52,23.69-78.36,22.27-45.73-1.09-163.02-.48-215.79-.13-15.79.1-29.73,10.28-34.66,25.28l-23.1,70.31h360.47s123.96,3.91,168.12-117.73,106.86-356.64,106.86-356.64h-148.18l-85.49,237.19s-1.42,13.48-31.35,14.91c-29.92,1.42-122.07-4.27-122.07-4.27,0,0-13.28,2.85-1.88-42.74,11.4-45.59,71.24-205.08,71.24-205.08h-152.45Z"/>
      <path class="st39" d="M2774.92,1691.01c-129.85-2.7-354.38,0-354.38,0,0,0-14.89,21.64-23,50.05-8.11,28.4-2.7,36.52-2.7,36.52l310.33,1.24c15.18.05,26.58,13.86,23.76,28.78l-229.22,10.09c-42.6,1.88-88.23,6.44-127.85,22.22-33.39,13.29-68.42,48.51-79.71,73.07-25.3,55.02-14.99,125.65,102.69,131.06,117.68,5.42,415.25,0,415.25,0l78.45-258.34s16.23-91.98-113.62-94.69ZM2674.34,1936.59c0,8.3-6.73,15.04-15.03,15.04h-173.34c-8.3,0-15.04-6.74-15.04-15.04v-12.54c0-8.12,6.46-14.78,14.57-15.03l173.33-5.39c8.48-.27,15.5,6.54,15.5,15.03v17.93Z"/>
      <path class="st30" d="M576.67,1704.54v245.11c0,22.15-17.95,40.1-40.1,40.1s-40.09-17.95-40.09-40.1v-245.11c0-22.14,17.95-40.09,40.09-40.09,11.08,0,21.1,4.49,28.36,11.75,7.25,7.25,11.75,17.27,11.75,28.35Z"/>
      <path class="st33" d="M1344.76,1770.19s14.78-61.29,26.04-70.31c11.26-9.02,351.53-3.47,374.1,0,22.57,3.47,60.76,13.02,73.78,43.4,13.02,30.38,0,74.65,0,74.65,0,0-43.4-42.53-146.69-44.27-103.29-1.74-315.95-.87-327.23-3.47Z"/>
      <path class="st12" d="M1532.61,1813.94s-203.83,9.06-227.94,113.68c-24.12,104.63,80.07,117.78,80.07,117.78,0,0-139.82,8.19-155.36-72.21-15.54-80.4,55-167.93,303.23-159.26Z"/>
      <polygon class="st34" points="1897.73 1692.26 1850.11 1815.64 1998.18 1817.93 2044.05 1692.26 1897.73 1692.26"/>
      <path class="st7" d="M1733.26,2162.19l23.44-69.47s9.6-21.74,28.24-22.03,158.7,0,158.7,0c0,0-131.87,99.96-210.38,91.49Z"/>
      <path class="st18" d="M2395.63,1774s-3.5-16.61,5.83-37.87,20.98-42.83,20.98-42.83l277.06-1.46s20.98,74.87-21.56,79.53c-42.53,4.66-41.08,5.54-41.08,5.54,0,0-239.15-2.38-241.22-2.91Z"/>
      <path class="st22" d="M2546.19,1821.08s-109.37-6.07-179.8,25.02c-70.43,31.09-89.56,98.48-80.28,128.9s23.51,59.14,102.36,62.93c78.86,3.79-26.54-48.53,21.23-90.23,47.77-41.7,235.09-130.9,136.48-126.63Z"/>
      <ellipse class="st4" cx="536.04" cy="1709.26" rx="36.47" ry="39.98" transform="translate(-82.49 28.09) rotate(-2.79)"/>
      <ellipse class="st16" cx="437.95" cy="1788.22" rx="38.22" ry="32.44" transform="translate(-733.61 368.02) rotate(-25.76)"/>
      <circle class="st8" cx="633.61" cy="1785.35" r="30.9"/>
      <path class="st13" d="M1144.2,1712.39l52.97-145.42h181.7s-219.58,145.74-234.67,145.42Z"/>
      <path class="st26" d="M2220,1692.26l-49.94,150.99s116.71,16.84,137.61-11.61,52.84-139.38,52.84-139.38h-140.52Z"/>
      <path class="st25" d="M1992,2159.84s111.17,3.91,143.58-5.03c32.42-8.94,82.44-34.75,104.52-75.26s28.51-70.07,28.51-70.07c0,0-198.3,146.02-276.61,150.35Z"/>
      <path class="st36" d="M1820.91,1901.06s-22.92,41.92-16.21,69.31c6.71,27.39,29.06,52.54,75.46,58.13,46.39,5.59,26.27-149.79-59.25-127.44Z"/>
    </g>
  </g>
  <g id="Layer_3" class="st29">
    <path class="st38" d="M698.98,1372.95c-156.78,0-283.87,127.09-283.87,283.87s127.09,283.87,283.87,283.87,283.87-127.09,283.87-283.87-127.09-283.87-283.87-283.87ZM660.16,1442.9c0-20.51,16.63-37.14,37.14-37.14,10.26,0,19.55,4.16,26.27,10.88,6.72,6.72,10.88,16,10.88,26.26v227.05c0,20.52-16.63,37.15-37.15,37.15s-37.14-16.63-37.14-37.15v-227.05ZM696.19,1869.69c-113.49,0-205.49-90.97-205.49-203.19,0-76.01,42.2-142.27,104.7-177.11,14.61-8.15,33.09-2.37,40.73,12.51l1.09,2.13c6.89,13.43,2.67,29.96-9.92,38.29-36.86,24.4-61.31,67.23-61.31,115.98,0,75.9,59.26,137.44,132.36,137.44s132.36-61.54,132.36-137.44c0-48.9-24.59-91.83-61.63-116.2-12.34-8.11-17.12-23.87-11.01-37.32l.07-.16c7.27-16.01,26.8-22.28,42-13.44,60.76,35.3,101.54,100.6,101.54,175.32,0,112.22-92,203.19-205.49,203.19Z"/>
    <path class="st20" d="M901.68,1666.5c0,112.22-92,203.19-205.49,203.19s-205.49-90.97-205.49-203.19c0-76.01,42.2-142.27,104.7-177.11,14.61-8.15,33.09-2.37,40.73,12.51l1.09,2.13c6.89,13.43,2.67,29.96-9.92,38.29-36.86,24.4-61.31,67.23-61.31,115.98,0,75.9,59.26,137.44,132.36,137.44s132.36-61.54,132.36-137.44c0-48.9-24.59-91.83-61.63-116.2-12.34-8.11-17.12-23.87-11.01-37.32l.07-.16c7.27-16.01,26.8-22.28,42-13.44,60.76,35.3,101.54,100.6,101.54,175.32Z"/>
    <path class="st17" d="M734.45,1442.9v227.05c0,20.52-16.63,37.15-37.15,37.15s-37.14-16.63-37.14-37.15v-227.05c0-20.51,16.63-37.14,37.14-37.14,10.26,0,19.55,4.16,26.27,10.88,6.72,6.72,10.88,16,10.88,26.26Z"/>
    <g>
      <g>
        <polygon points="2430.15 1997.57 2361.95 2181.18 2397.6 2181.18 2465.8 1997.57 2430.15 1997.57"/>
        <path d="M3064.9,2076.94c-.44-.78-.9-1.54-1.4-2.29-4.86-7.56-12.05-13.48-21.58-17.75-10.46-4.71-23.2-7.06-38.21-7.06-1.2,0-2.39.02-3.57.05-16.11.43-30.93,3.75-44.48,9.97-5.28,2.43-10.24,5.19-14.85,8.28-10.45-15-26.09-19.26-37.17-20.25,0,0-23.8-3.28-48.5,10.42-11.35,6.29-22.9,16.16-32.42,31.57,0,.03-.02.06-.04.09-2.89,4.7-4.61,8.18-5.34,10.64-1.48,3.35-2.54,6.16-3.21,8.01-.11.32-.22.62-.31.88l-.53,1.61s-.01.03-.01.03l-12.78,38.27-3.73,11.18-6.95,20.8h36.09l22.4-68.44c4.24-12.84,10.49-22.4,18.73-28.67,1.36-1.04,2.78-1.99,4.25-2.86,7.75-4.61,17.51-5.51,25.68-1.6,9.43,4.51,12.99,13.01,14.22,20.2-4.51,8.32-7.44,17.34-8.82,27.04-1.66,11.72-.05,21.91,4.8,30.56.26.47.53.94.83,1.39,4.87,8,12.25,14.3,22.11,18.9,10.43,4.87,23.06,7.3,37.9,7.3,17.68,0,33.79-3.38,48.34-10.15,14.55-6.76,26.56-16,36.01-27.71,9.45-11.71,15.23-24.91,17.3-39.6,1.68-11.88.09-22.14-4.77-30.81ZM3033.52,2109.24c-1.38,9.74-4.87,18.32-10.48,25.73-5.62,7.42-12.62,13.24-21.01,17.45-8.39,4.2-17.72,6.31-27.99,6.31-12.74,0-22.21-2.93-28.42-8.79-6.2-5.85-8.57-13.98-7.09-24.37.83-5.89,2.43-11.36,4.84-16.4,1.55-3.3,3.43-6.4,5.64-9.34.68-.89,1.36-1.76,2.09-2.6,5.25-6.19,11.6-11.14,19.07-14.84,8.48-4.2,17.77-6.31,27.85-6.31,12.74,0,22.2,2.96,28.4,8.9,6.19,5.94,8.57,14.03,7.12,24.25Z"/>
        <path d="M3226.5,2074.9c-2.43-8.99-7.89-15.8-16.36-20.42-4.67-2.55-10.05-4.38-16.14-5.52-.03,0-.08-.02-.11-.03-2.51-.6-5.27-1.06-8.32-1.37-21.53-2.21-42.79,3.22-60.36,10.37-.25.1-.5.21-.75.31-25.19,10.38-44.22,29.45-52.75,52.49l-26.09,70.46h35.65l25.67-68.55c4.86-12.87,12.02-22.44,21.46-28.71,9.44-6.27,20.73-9.4,33.85-9.4s20.77,3.01,24.68,9.03c3.9,6.02,3.85,14.4-.14,25.12l-26.8,72.51h35.65l27.19-73.25c4.89-13.02,6.11-24.04,3.68-33.03Z"/>
        <path d="M3279.17,2029.89c6.46,0,11.86-1.65,16.22-4.96,4.36-3.3,6.91-7.61,7.67-12.93.57-4.02-.69-7.43-3.77-10.24-3.08-2.8-7.44-4.2-13.06-4.2-6.29,0-11.58,1.65-15.85,4.96-4.28,3.31-6.76,7.4-7.45,12.28-.59,4.17.6,7.72,3.58,10.67,2.97,2.95,7.2,4.42,12.66,4.42Z"/>
        <polygon points="3450.31 2049.04 3401.83 2049.04 3309.94 2107.16 3350.64 1997.57 3314.99 1997.57 3246.79 2181.18 3282.45 2181.18 3295.45 2146.18 3330.57 2124.11 3363.16 2181.18 3404.52 2181.18 3361.46 2105.62 3450.31 2049.04"/>
        <path d="M2362.43,2173.13c.19-.33.36-.65.51-.98.06-.12.12-.24.17-.36.14-.31.26-.62.37-.92.45-1.22.72-2.51.81-3.85.02-.27.03-.53.04-.77,0-.07.01-.13.01-.19v-2.43c0-2.32-2.05-4.2-4.56-4.2h-42.79v-.09c-8.93-.34-15.93-1.7-21.38-3.68-.21-.11-.41-.23-.62-.36-21.46-8.68-14.76-27.03-14.76-27.03l81.99-.21h2.22c3.92,0,7.08-2.93,7.08-6.53v-13.18c0-3.6-3.17-6.53-7.08-6.53h-80.72c.87-1.86,1.83-3.65,2.89-5.38,4.65-7.67,10.66-13.61,18.02-17.81,2.99-1.71,6.22-3.02,9.57-3.89,3.35-.88,6.84-1.34,10.37-1.34h58.91c.28,0,.57,0,.85-.02h.01c8.82-.42,15.84-7.14,15.84-15.38v-5.18c0-2.29-2.01-4.15-4.5-4.15h-74.12c-1.4,0-2.78.13-4.15.39-8.64,1.57-16.84,4.42-24.57,8.53-12.53,6.69-22.9,15.8-31.08,27.34-8.19,11.55-13.22,24.83-15.1,39.84-1.46,11.72-.01,21.91,4.38,30.56,3.57,7.07,8.81,12.88,15.69,17.43,1.54,1.01,3.18,1.98,4.89,2.87.05.03.09.05.14.08,6.56,3.4,13.84,5.18,21.23,5.46,1.78.24,3.57.35,5.36.35h44.82c.19,0,.38-.02.58-.03,1.41-.04,2.72-.13,3.94-.28h.22c5.77,0,10.84-2.75,13.77-6.9.24-.32.45-.65.65-.98.04-.06.07-.12.1-.18Z"/>
        <path d="M2543.65,2172.28c.45-1.22.72-2.51.81-3.85.02-.27.03-.53.04-.77,0-.07.01-.13.01-.19v-2.43c0-2.32-2.05-4.2-4.56-4.2h-42.79v-.09c-8.93-.34-15.93-1.7-21.38-3.68-.21-.11-.41-.23-.62-.36-21.46-8.68-14.76-27.03-14.76-27.03l81.99-.21h2.22c3.92,0,7.08-2.93,7.08-6.53v-13.18c0-3.6-3.17-6.53-7.08-6.53h-80.72c.87-1.86,1.83-3.65,2.89-5.38,4.65-7.67,10.66-13.61,18.02-17.81,2.99-1.71,6.22-3.02,9.57-3.89,3.35-.88,6.84-1.34,10.37-1.34h58.91c.28,0,.57,0,.85-.02h.01c8.82-.42,15.84-7.14,15.84-15.38v-5.18c0-2.29-2.01-4.15-4.5-4.15h-74.12c-1.4,0-2.78.13-4.15.39-8.64,1.57-16.84,4.42-24.57,8.53-12.53,6.69-22.9,15.8-31.08,27.34-8.19,11.55-13.22,24.83-15.1,39.84-1.46,11.72-.01,21.91,4.38,30.56,3.57,7.07,8.81,12.88,15.69,17.43,1.54,1.01,3.18,1.98,4.89,2.87.05.03.09.05.14.08,6.56,3.4,13.84,5.18,21.23,5.46,1.78.24,3.57.35,5.36.35h44.82c.19,0,.38-.02.58-.03,1.41-.04,2.72-.13,3.94-.28h.22c5.77,0,10.84-2.75,13.77-6.9.24-.32.45-.65.65-.98.04-.06.07-.12.1-.18.19-.33.36-.65.51-.98.06-.12.12-.24.17-.36.14-.31.26-.62.37-.92Z"/>
        <path d="M2788.07,2161c-5.63.27-12.65-.41-17.52-1.03h-.01c-3.25-.41-5.54-.79-5.84-.83-.02,0-.03,0-.03,0h-.01c-20.99-4.29-13.95-19.39-13.56-20.19,0-.03.01-.04.01-.04.16-.64.37-1.32.59-2l23.54-63.1h41l6.82-18.32,2.39-6.43h-40.99l10.89-29.21h-35.65l-10.88,29.21h-50.58l-91.89,58.11,40.7-109.58h-35.65l-68.2,183.62h35.65l13-35,35.13-22.07,32.59,57.07h41.36l-43.06-75.57,59.24-37.72-2.12,5.89h24.61l-23.6,63.35c-3.43,9.4-4.05,17.53-1.89,24.38,2.17,6.85,6.56,12.12,13.16,15.83.03.02.07.04.09.05,4.67,2.61,10.16,3.87,15.71,3.88l43.84.09,6.49-20.64c-1.33.07-3.07.15-5.35.26Z"/>
        <polygon points="3292.03 2039.64 3256.37 2039.64 3252.89 2049.04 3252.7 2049.04 3203.77 2181.18 3239.42 2181.18 3242.9 2171.79 3243.09 2171.79 3292.03 2039.64"/>
      </g>
      <polygon points="3527.1 2114.28 3426.66 2177.55 3464.15 2057.25 3527.1 2114.28"/>
      <polygon points="3547.49 2058.52 3509.15 2176.28 3625 2117.4 3547.49 2058.52"/>
    </g>
    <path class="st14" d="M898.92,1658.64l-28.28,107.18h285.97s114.99.88,184.26-107.18,148.24-347.74,148.24-347.74h-182.88l-87.28,243.84s-42.95,101.14-124.69,102.52-195.35,1.39-195.35,1.39Z"/>
    <path class="st24" d="M1794.75,1430.37c-120.28-2.5-328.27,0-328.27,0,0,0-13.79,20.05-21.31,46.36-7.51,26.31-2.5,33.83-2.5,33.83l287.47,1.15c14.06.05,24.62,12.84,22.01,26.66l-212.33,9.35c-39.46,1.74-81.73,5.97-118.43,20.58-30.93,12.31-63.38,44.94-73.84,67.69-23.44,50.97-13.89,116.39,95.12,121.4,109.01,5.02,384.66,0,384.66,0l72.67-239.31s15.03-85.2-105.25-87.71ZM1701.58,1657.85c0,7.69-6.23,13.93-13.92,13.93h-160.57c-7.69,0-13.93-6.24-13.93-13.93v-11.62c0-7.52,5.98-13.69,13.5-13.92l160.56-4.99c7.86-.25,14.36,6.06,14.36,13.92v16.61Z"/>
    <path class="st3" d="M1955.65,1429.26l-84.47,220.29s-30.36,85.83,76.55,97.7,180.81,12.37,180.81,12.37c0,0-17.16,21.94-72.59,20.63s-224.37.06-224.37.06l-29.04,88.37h333.91s114.82,3.62,155.74-109.05,98.99-330.36,98.99-330.36h-137.26l-79.19,219.71s-1.32,12.49-29.04,13.81-113.08-3.96-113.08-3.96c0,0-12.3,2.64-1.74-39.59s65.99-189.97,65.99-189.97h-141.22Z"/>
    <path class="st1" d="M2769.62,1430.37c-120.28-2.5-328.27,0-328.27,0,0,0-13.79,20.05-21.31,46.36-7.51,26.31-2.5,33.83-2.5,33.83l287.47,1.15c14.06.05,24.62,12.84,22.01,26.66l-212.33,9.35c-39.46,1.74-81.73,5.97-118.43,20.58-30.93,12.31-63.38,44.94-73.84,67.69-23.44,50.97-13.89,116.39,95.12,121.4,109.01,5.02,384.66,0,384.66,0l72.67-239.31s15.03-85.2-105.25-87.71ZM2676.45,1657.85c0,7.69-6.23,13.93-13.92,13.93h-160.57c-7.69,0-13.93-6.24-13.93-13.93v-11.62c0-7.52,5.98-13.69,13.5-13.92l160.56-4.99c7.86-.25,14.36,6.06,14.36,13.92v16.61Z"/>
  </g>
</svg>